<?xml version="1.0" encoding="UTF-8"?><svg id="Layer_2" xmlns="http://www.w3.org/2000/svg" width="318.82" height="320" xmlns:xlink="http://www.w3.org/1999/xlink" viewBox="0 0 318.82 320"><defs><style>.cls-1{fill:#81789f;}.cls-1,.cls-2,.cls-3,.cls-4{stroke-width:0px;}.cls-5{filter:url(#drop-shadow-1);}.cls-6{stroke-linecap:round;}.cls-6,.cls-7{fill:none;stroke:#21212b;stroke-miterlimit:10;stroke-width:16px;}.cls-2{fill:#ccff29;}.cls-3{fill:#78eec8;}.cls-4{fill:#21212b;opacity:.56;}</style><filter id="drop-shadow-1" filterUnits="userSpaceOnUse"><feOffset dx="3" dy="3"/><feGaussianBlur result="blur" stdDeviation="3"/><feFlood flood-color="#000" flood-opacity=".75"/><feComposite in2="blur" operator="in"/><feComposite in="SourceGraphic"/></filter></defs><g id="Layer_2-2"><path class="cls-4" d="M19.62,10.32h252.79c25.62,0,46.41,20.8,46.41,46.41v252.79c0,5.78-4.69,10.47-10.47,10.47H67.06c-31.96,0-57.91-25.95-57.91-57.91V20.8c0-5.78,4.69-10.47,10.47-10.47Z"/><path class="cls-2" d="M10.47,0h252.79C288.88,0,309.68,20.8,309.68,46.41v252.79c0,5.78-4.69,10.47-10.47,10.47H57.91c-31.96,0-57.91-25.95-57.91-57.91V10.47C0,4.69,4.69,0,10.47,0Z"/><path class="cls-1" d="M174.98,168.15c-.19-.25-.37-.51-.56-.76.93.04,1.84.63,2.05,1.32-.5-.19-.99-.37-1.49-.56Z"/><path class="cls-1" d="M169.97,163.82c.68.56,1.37,1.11,2.05,1.67.8.64,1.6,1.27,2.4,1.91-1.41-1-2.82-2-4.21-3.02-.14-.1-.17-.37-.24-.56Z"/><path class="cls-3" d="M174.05,161.83c0-.05,0-.11.02-.16.1.03.21.05.31.08.02.04.03.07.04.11-.12-.01-.25-.02-.37-.03Z"/><g class="cls-5"><path class="cls-6" d="M189.75,185.85h-1.14c-22.06,0-40.89,17.15-41.63,39.2-.77,23.05,17.69,41.98,40.57,41.98h81.27"/><path class="cls-6" d="M124.32,132.85v1.14c0,22.06-17.15,40.89-39.2,41.63-23.05.77-41.98-17.69-41.98-40.57,0-27.7,0-65.08,0-92.78"/><circle class="cls-6" cx="194.74" cy="112.92" r="72.92"/><circle class="cls-7" cx="197.49" cy="111.33" r="19.23"/></g></g></svg>